REM DIRINDEX 1\2,1\3,1\4,1\5
REM DIRNAME folder01,folder02,folder03,folder04,folder05
TITLE ""
FILE "1Q_j_2381-2394.mp3" MP3
  TRACK 01 AUDIO
    TITLE "3:cjc004_0842"
    INDEX 01 00:00:00
  TRACK 02 AUDIO
    TITLE "0:"
    INDEX 01 00:01:11
  TRACK 03 AUDIO
    TITLE "4:cjc004_0843"
    INDEX 01 00:01:44
  TRACK 04 AUDIO
    TITLE "0:"
    INDEX 01 00:02:71
  TRACK 05 AUDIO
    TITLE "5:cjc004_0844"
    INDEX 01 00:03:21
  TRACK 06 AUDIO
    TITLE "0:"
    INDEX 01 00:08:07
  TRACK 07 AUDIO
    TITLE "3:cjc004_0845"
    INDEX 01 00:08:62
  TRACK 08 AUDIO
    TITLE "0:"
    INDEX 01 00:09:71
  TRACK 09 AUDIO
    TITLE "4:cjc004_0846"
    INDEX 01 00:10:23
  TRACK 10 AUDIO
    TITLE "0:"
    INDEX 01 00:11:19
  TRACK 11 AUDIO
    TITLE "5:cjc004_0847"
    INDEX 01 00:11:46
  TRACK 12 AUDIO
    TITLE "0:"
    INDEX 01 00:15:28
  TRACK 13 AUDIO
    TITLE "3:cjc004_0848"
    INDEX 01 00:16:04
  TRACK 14 AUDIO
    TITLE "0:"
    INDEX 01 00:17:14
  TRACK 15 AUDIO
    TITLE "4:cjc004_0849"
    INDEX 01 00:17:37
  TRACK 16 AUDIO
    TITLE "0:"
    INDEX 01 00:18:64
  TRACK 17 AUDIO
    TITLE "5:cjc004_0850"
    INDEX 01 00:19:15
  TRACK 18 AUDIO
    TITLE "0:"
    INDEX 01 00:23:20
  TRACK 19 AUDIO
    TITLE "3:cjc004_0851"
    INDEX 01 00:23:67
  TRACK 20 AUDIO
    TITLE "0:"
    INDEX 01 00:25:60
  TRACK 21 AUDIO
    TITLE "4:cjc004_0852"
    INDEX 01 00:26:17
  TRACK 22 AUDIO
    TITLE "0:"
    INDEX 01 00:27:65
  TRACK 23 AUDIO
    TITLE "5:cjc004_0853"
    INDEX 01 00:28:12
  TRACK 24 AUDIO
    TITLE "0:"
    INDEX 01 00:33:22
  TRACK 25 AUDIO
    TITLE "3:cjc004_0854"
    INDEX 01 00:34:00
  TRACK 26 AUDIO
    TITLE "0:"
    INDEX 01 00:35:25
  TRACK 27 AUDIO
    TITLE "4:cjc004_0855"
    INDEX 01 00:35:59
  TRACK 28 AUDIO
    TITLE "0:"
    INDEX 01 00:36:72
  TRACK 29 AUDIO
    TITLE "5:cjc004_0856"
    INDEX 01 00:37:26
  TRACK 30 AUDIO
    TITLE "0:"
    INDEX 01 00:40:72
  TRACK 31 AUDIO
    TITLE "3:cjc004_0857"
    INDEX 01 00:41:49
  TRACK 32 AUDIO
    TITLE "0:"
    INDEX 01 00:43:01
  TRACK 33 AUDIO
    TITLE "4:cjc004_0858"
    INDEX 01 00:43:25
  TRACK 34 AUDIO
    TITLE "0:"
    INDEX 01 00:44:48
  TRACK 35 AUDIO
    TITLE "5:cjc004_0859"
    INDEX 01 00:44:73
  TRACK 36 AUDIO
    TITLE "0:"
    INDEX 01 00:48:44
  TRACK 37 AUDIO
    TITLE "3:cjc004_0860"
    INDEX 01 00:49:31
  TRACK 38 AUDIO
    TITLE "0:"
    INDEX 01 00:50:50
  TRACK 39 AUDIO
    TITLE "4:cjc004_0861"
    INDEX 01 00:51:05
  TRACK 40 AUDIO
    TITLE "0:"
    INDEX 01 00:52:30
  TRACK 41 AUDIO
    TITLE "5:cjc004_0862"
    INDEX 01 00:52:57
  TRACK 42 AUDIO
    TITLE "0:"
    INDEX 01 00:57:03
  TRACK 43 AUDIO
    TITLE "3:cjc004_0863"
    INDEX 01 00:57:60
  TRACK 44 AUDIO
    TITLE "0:"
    INDEX 01 00:59:02
  TRACK 45 AUDIO
    TITLE "4:cjc004_0864"
    INDEX 01 00:59:34
  TRACK 46 AUDIO
    TITLE "0:"
    INDEX 01 01:00:45
  TRACK 47 AUDIO
    TITLE "5:cjc004_0865"
    INDEX 01 01:00:70
  TRACK 48 AUDIO
    TITLE "0:"
    INDEX 01 01:05:60
  TRACK 49 AUDIO
    TITLE "3:cjc004_0866"
    INDEX 01 01:06:38
  TRACK 50 AUDIO
    TITLE "0:"
    INDEX 01 01:07:55
  TRACK 51 AUDIO
    TITLE "4:cjc004_0867"
    INDEX 01 01:08:09
  TRACK 52 AUDIO
    TITLE "0:"
    INDEX 01 01:09:48
  TRACK 53 AUDIO
    TITLE "5:cjc004_0868"
    INDEX 01 01:10:00
  TRACK 54 AUDIO
    TITLE "0:"
    INDEX 01 01:13:73
  TRACK 55 AUDIO
    TITLE "3:cjc004_0869"
    INDEX 01 01:14:53
  TRACK 56 AUDIO
    TITLE "0:"
    INDEX 01 01:15:60
  TRACK 57 AUDIO
    TITLE "4:cjc004_0870"
    INDEX 01 01:16:09
  TRACK 58 AUDIO
    TITLE "0:"
    INDEX 01 01:17:24
  TRACK 59 AUDIO
    TITLE "5:cjc004_0871"
    INDEX 01 01:17:53
  TRACK 60 AUDIO
    TITLE "0:"
    INDEX 01 01:22:35
  TRACK 61 AUDIO
    TITLE "3:cjc004_0872"
    INDEX 01 01:23:22
  TRACK 62 AUDIO
    TITLE "0:"
    INDEX 01 01:24:53
  TRACK 63 AUDIO
    TITLE "4:cjc004_0873"
    INDEX 01 01:25:08
  TRACK 64 AUDIO
    TITLE "0:"
    INDEX 01 01:26:15
  TRACK 65 AUDIO
    TITLE "5:cjc004_0874"
    INDEX 01 01:26:40
  TRACK 66 AUDIO
    TITLE "0:"
    INDEX 01 01:31:10
  TRACK 67 AUDIO
    TITLE "3:cjc004_0875"
    INDEX 01 01:31:65
  TRACK 68 AUDIO
    TITLE "0:"
    INDEX 01 01:32:72
  TRACK 69 AUDIO
    TITLE "4:cjc004_0876"
    INDEX 01 01:33:33
  TRACK 70 AUDIO
    TITLE "0:"
    INDEX 01 01:34:69
  TRACK 71 AUDIO
    TITLE "5:cjc004_0877"
    INDEX 01 01:35:18
  TRACK 72 AUDIO
    TITLE "0:"
    INDEX 01 01:39:35
  TRACK 73 AUDIO
    TITLE "3:cjc004_0878"
    INDEX 01 01:40:15
  TRACK 74 AUDIO
    TITLE "0:"
    INDEX 01 01:41:44
  TRACK 75 AUDIO
    TITLE "4:cjc004_0879"
    INDEX 01 01:41:73
  TRACK 76 AUDIO
    TITLE "0:"
    INDEX 01 01:43:05
  TRACK 77 AUDIO
    TITLE "5:cjc004_0880"
    INDEX 01 01:43:31
  TRACK 78 AUDIO
    TITLE "0:"
    INDEX 01 01:49:00
  TRACK 79 AUDIO
    TITLE "3:cjc004_0881"
    INDEX 01 01:49:61
  TRACK 80 AUDIO
    TITLE "0:"
    INDEX 01 01:51:21
  TRACK 81 AUDIO
    TITLE "4:cjc004_0882"
    INDEX 01 01:51:48
  TRACK 82 AUDIO
    TITLE "0:"
    INDEX 01 01:53:14
  TRACK 83 AUDIO
    TITLE "5:cjc004_0883"
    INDEX 01 01:53:39
  TRACK 84 AUDIO
    TITLE "0:"
    INDEX 01 01:59:03
